# xmcd
#
# Track frame offsets: 
#        150
#        14956
#        29198
#        50362
#        66824
#        93217
#        109034
#        129555
#        157901
#
# Disc length: 2455 seconds
#
# Revision: 3
# Processed by: cddbd v1.5.2PL0 Copyright (c) Steve Scherf et al.
# Submitted via: ExactAudioCopy v0.99pb5
#
DISCID=77099509
DTITLE=Ry Cooder - Get Rhythm
DYEAR=1988
DGENRE=
TTITLE0=Get Rhythm
TTITLE1=Low-Commotion
TTITLE2=Going Back to Okinawa
TTITLE3=13 Quetion Method
TTITLE4=Women Will Rule the World
TTITLE5=All Shook Up
TTITLE6=I Can Tell by the Way You Smell
TTITLE7=Across the Borderline
TTITLE8=Let's Have a Ball
EXTD=
EXTT0=
EXTT1=
EXTT2=
EXTT3=
EXTT4=
EXTT5=
EXTT6=
EXTT7=
EXTT8=
PLAYORDER=
